<?xml version="1.0" standalone="no"?>
<!DOCTYPE svg PUBLIC "-//W3C//DTD SVG 20010904//EN"
 "http://www.w3.org/TR/2001/REC-SVG-20010904/DTD/svg10.dtd">
<svg version="1.0" xmlns="http://www.w3.org/2000/svg"
 width="794.000000pt" height="596.000000pt" viewBox="0 0 794.000000 596.000000"
 preserveAspectRatio="xMidYMid meet">

<g transform="translate(0.000000,596.000000) scale(0.100000,-0.100000)"
fill="#000000" stroke="none">
<path d="M3841 5577 c-66 -33 -87 -127 -43 -186 l22 -30 0 -577 0 -576 23 6
c12 4 34 9 50 12 l27 7 0 548 0 549 35 14 c91 38 101 186 15 231 -35 18 -96
19 -129 2z"/>
<path d="M4165 5495 c-18 -17 -25 -35 -25 -63 0 -65 26 -82 182 -114 73 -15
176 -42 228 -59 255 -85 513 -251 726 -471 63 -64 164 -183 164 -192 0 -2 -20
-1 -45 2 -75 8 -137 -33 -146 -98 l-4 -25 -240 -3 -240 -3 -204 -198 -204
-197 30 -41 30 -42 198 190 199 189 238 0 c199 0 243 -3 272 -16 47 -23 101
-11 143 31 23 23 33 42 33 64 0 17 4 31 9 31 12 0 109 -211 141 -311 42 -129
88 -385 73 -411 -2 -5 -283 -8 -624 -8 l-619 0 0 -32 c0 -18 -3 -43 -6 -55
l-6 -23 628 -2 629 -3 -3 -60 c-2 -33 -12 -116 -23 -185 -15 -97 -27 -141 -54
-197 -53 -107 -154 -187 -256 -200 -33 -5 -42 -11 -54 -38 -24 -58 -93 -118
-166 -144 l-26 -9 14 -59 c25 -102 13 -125 -142 -283 l-134 -135 -3 -380 -3
-381 -26 -49 c-32 -62 -93 -110 -159 -124 -28 -6 -120 -11 -204 -11 -118 0
-156 -3 -165 -14 -8 -9 -11 -108 -9 -342 l3 -329 85 0 85 0 7 114 c5 75 12
121 23 137 33 51 34 51 575 56 550 6 538 4 610 65 68 57 83 138 56 289 -15 82
-21 139 -18 187 2 21 22 48 82 106 44 43 80 84 80 91 0 7 -23 35 -50 63 -28
28 -49 51 -48 52 2 1 19 8 38 15 86 33 113 72 99 143 -5 23 -8 101 -9 174 l0
132 43 11 c154 40 300 85 326 101 41 25 49 61 24 113 -11 22 -85 131 -163 241
-190 266 -257 369 -270 413 -14 53 -12 101 10 237 24 147 26 366 5 510 -100
668 -616 1268 -1284 1492 -138 46 -303 83 -374 83 -48 0 -62 -4 -82 -25z"/>
<path d="M3239 5478 c-43 -24 -79 -83 -79 -126 0 -67 46 -133 107 -153 32 -10
33 -12 33 -68 0 -56 -1 -59 -37 -82 -58 -38 -83 -82 -83 -149 0 -43 6 -65 23
-91 28 -41 82 -79 113 -79 l24 0 0 -233 0 -232 120 -120 120 -120 37 37 37 37
-102 110 -102 109 0 219 c0 211 1 221 21 239 33 30 51 74 51 124 0 68 -34 125
-94 156 -27 14 -28 18 -28 88 0 61 3 76 21 92 101 92 32 265 -106 264 -22 0
-56 -10 -76 -22z"/>
<path d="M3602 5458 c-9 -9 -12 -145 -12 -607 l0 -596 53 -59 53 -59 37 24
c20 13 37 27 37 30 0 4 -20 29 -45 57 l-45 50 -2 583 -3 584 -30 3 c-17 2 -36
-3 -43 -10z"/>
<path d="M2909 5213 c-297 -201 -521 -457 -678 -770 -69 -137 -140 -342 -148
-424 -5 -53 -4 -56 27 -82 34 -29 65 -34 103 -16 32 14 38 27 90 189 87 267
223 493 420 697 70 72 170 162 235 211 65 49 118 96 123 110 22 58 -23 122
-86 122 -21 0 -52 -13 -86 -37z"/>
<path d="M4043 5185 c-29 -20 -46 -75 -34 -107 16 -42 61 -71 101 -64 112 18
105 186 -7 186 -21 0 -48 -7 -60 -15z"/>
<path d="M4548 5071 c-101 -32 -155 -148 -114 -245 8 -18 35 -51 60 -72 l47
-39 -2 -89 -3 -90 -163 -170 c-90 -94 -163 -173 -163 -176 0 -3 19 -17 43 -32
l42 -27 178 177 177 177 0 122 c0 101 3 123 15 123 28 0 92 73 105 120 14 51
3 114 -28 155 -38 52 -135 84 -194 66z"/>
<path d="M4042 4844 c-22 -15 -22 -16 -22 -315 l0 -299 28 0 c15 0 37 -3 50
-6 l22 -6 0 305 c0 305 0 306 -22 321 -12 9 -25 16 -28 16 -3 0 -16 -7 -28
-16z"/>
<path d="M2922 4777 c-29 -31 -28 -72 3 -102 28 -29 45 -31 85 -10 49 25 50
98 0 125 -31 16 -65 12 -88 -13z"/>
<path d="M4949 4782 c-33 -27 -30 -78 6 -109 32 -28 69 -25 98 9 56 66 -36
155 -104 100z"/>
<path d="M4269 4672 c-45 -37 -17 -122 40 -122 45 0 71 26 71 70 0 63 -61 91
-111 52z"/>
<path d="M2685 4546 c-117 -52 -140 -209 -43 -291 63 -53 144 -56 213 -9 l38
25 61 -58 c34 -32 104 -99 156 -150 l95 -91 145 -41 c80 -23 150 -41 156 -41
14 0 47 71 37 80 -4 5 -72 27 -149 50 l-142 42 -160 154 c-151 145 -160 156
-166 199 -17 108 -141 176 -241 131z"/>
<path d="M2470 4060 c-48 -48 -2 -139 63 -126 62 12 85 70 46 120 -26 33 -79
36 -109 6z"/>
<path d="M2751 4044 c-12 -15 -21 -32 -21 -39 0 -7 9 -24 21 -39 39 -49 119
-26 119 35 0 67 -78 95 -119 43z"/>
<path d="M3877 4045 c-89 -33 -172 -122 -197 -210 -18 -64 -9 -179 19 -233 33
-65 87 -118 149 -149 77 -38 201 -40 277 -5 67 31 139 109 165 180 30 78 24
185 -13 258 -33 64 -113 137 -174 158 -57 20 -174 20 -226 1z"/>
<path d="M4550 4004 c-41 -30 -81 -59 -89 -63 -12 -7 -12 -17 0 -65 l14 -56
90 65 90 64 428 1 c276 0 435 4 448 10 23 13 26 62 3 84 -14 14 -69 16 -462
16 l-447 -1 -75 -55z"/>
<path d="M1731 3839 c-48 -10 -83 -38 -108 -89 -28 -53 -29 -92 -4 -146 55
-121 228 -126 297 -9 25 44 28 46 68 43 l41 -3 8 -125 c16 -271 88 -551 193
-749 51 -96 141 -237 197 -304 l23 -29 67 64 67 63 -55 80 c-71 101 -187 333
-221 439 -43 135 -74 303 -81 439 l-6 127 648 0 c586 0 647 1 641 16 -3 9 -6
33 -6 55 l0 39 -789 0 -789 0 -16 25 c-34 51 -107 78 -175 64z"/>
<path d="M3383 3469 l-133 -110 1 -87 1 -87 132 -124 c72 -69 181 -174 243
-234 l112 -109 -16 -32 c-23 -43 -22 -123 2 -164 11 -18 36 -44 57 -57 l38
-25 0 -79 c0 -79 5 -91 43 -104 12 -5 26 2 43 18 21 21 24 33 24 97 0 73 0 73
36 96 48 31 78 99 71 160 -6 52 -29 88 -81 121 l-37 25 1 240 1 240 -48 12
c-26 7 -49 13 -50 14 -2 0 -3 -111 -3 -246 0 -155 -4 -244 -10 -242 -5 2 -113
101 -240 221 l-230 218 0 47 1 47 109 88 108 88 -16 39 c-10 22 -19 40 -22 40
-3 -1 -65 -50 -137 -111z"/>
<path d="M2686 3546 c-31 -30 -33 -55 -8 -87 13 -15 30 -22 52 -22 77 0 84
110 8 128 -21 5 -33 1 -52 -19z"/>
<path d="M4430 3530 l-20 -39 78 -41 c68 -35 102 -64 247 -210 l167 -170 -403
-410 c-347 -353 -406 -410 -431 -410 -65 0 -107 -44 -108 -111 0 -56 27 -95
73 -107 78 -21 147 28 147 103 0 39 9 49 388 433 l387 394 30 -16 c17 -9 49
-16 73 -16 139 0 213 164 119 264 -60 63 -155 72 -218 19 l-31 -26 -156 156
c-142 141 -164 160 -235 192 -43 19 -80 35 -82 35 -3 0 -14 -18 -25 -40z"/>
<path d="M3052 3474 c-46 -32 -16 -124 41 -124 41 0 67 27 67 70 0 42 -26 70
-65 70 -11 0 -31 -7 -43 -16z"/>
<path d="M5317 3470 c-102 -55 -111 -203 -17 -270 45 -32 123 -38 170 -12 143
78 98 288 -63 299 -38 2 -62 -2 -90 -17z"/>
<path d="M3543 3415 c-38 -16 -73 -68 -73 -108 0 -43 29 -96 61 -112 34 -18
96 -19 127 -1 83 46 79 176 -7 221 -37 18 -66 19 -108 0z"/>
<path d="M4314 3411 c-31 -14 -47 -30 -63 -64 -28 -58 -21 -107 24 -155 27
-30 39 -36 86 -39 90 -7 151 46 151 131 0 59 -26 102 -77 126 -51 25 -69 25
-121 1z"/>
<path d="M2463 3350 c-65 -39 -85 -105 -54 -175 16 -37 29 -50 67 -66 59 -26
103 -19 151 25 65 59 55 171 -20 216 -41 25 -103 25 -144 0z"/>
<path d="M2777 3282 c-40 -44 -34 -52 328 -406 l345 -338 0 -1007 c0 -770 3
-1010 12 -1019 20 -20 76 -15 88 7 7 13 10 358 10 1049 l0 1028 -360 352
c-374 367 -386 375 -423 334z"/>
<path d="M4105 3264 c-5 -1 -27 -5 -47 -9 l-38 -6 0 -169 c0 -140 3 -171 16
-184 21 -21 47 -20 68 3 14 16 16 41 14 193 -2 110 -7 174 -13 172z"/>
<path d="M4393 3026 c-24 -21 -28 -32 -28 -76 0 -44 4 -55 28 -76 77 -66 197
5 173 102 -19 72 -115 100 -173 50z"/>
<path d="M2745 2915 c-174 -62 -131 -327 53 -327 101 0 172 70 172 169 0 80
-49 142 -127 162 -51 13 -49 13 -98 -4z"/>
<path d="M4275 2846 c-33 -14 -55 -52 -55 -92 0 -38 51 -84 93 -84 99 0 131
132 42 174 -39 19 -41 19 -80 2z"/>
<path d="M4763 2573 l-132 -138 -1 -397 c0 -218 -4 -399 -8 -402 -5 -3 -90 -6
-190 -7 l-183 -1 -94 -101 -95 -101 0 -433 c0 -295 -3 -433 -10 -433 -6 0 -22
-11 -35 -25 -37 -36 -35 -102 3 -138 45 -43 126 -35 153 15 8 14 11 161 10
502 l-2 481 64 63 64 64 202 5 c190 6 203 7 216 27 13 17 15 88 15 430 l0 410
121 122 c104 105 120 126 114 146 -9 29 -32 48 -59 48 -14 0 -67 -48 -153
-137z"/>
<path d="M3090 2620 c-41 -41 -13 -110 45 -110 43 0 65 22 65 65 0 58 -69 86
-110 45z"/>
<path d="M2621 2444 c-85 -60 -43 -194 61 -194 50 0 74 13 93 50 41 79 -8 160
-97 160 -19 0 -44 -7 -57 -16z"/>
<path d="M2890 2328 l0 -53 112 0 113 0 5 -298 c5 -319 5 -316 57 -317 52 0
53 4 53 376 l0 344 -170 0 -170 0 0 -52z"/>
<path d="M2440 2200 c-11 -11 -20 -30 -20 -43 0 -26 38 -67 62 -67 27 0 68 40
68 66 0 31 -33 64 -65 64 -14 0 -34 -9 -45 -20z"/>
<path d="M4297 2122 c-37 -41 -6 -112 48 -112 55 0 87 77 47 113 -25 22 -75
21 -95 -1z"/>
<path d="M3832 2048 c-17 -17 -17 -1249 0 -1266 15 -15 61 -15 76 0 17 17 17
1249 0 1266 -7 7 -24 12 -38 12 -14 0 -31 -5 -38 -12z"/>
<path d="M2882 2023 c-68 -33 -84 -127 -32 -187 71 -80 196 -40 207 66 5 52
-11 85 -56 115 -40 27 -73 29 -119 6z"/>
<path d="M2483 1954 c-20 -20 -24 -31 -19 -57 9 -44 29 -61 72 -61 68 0 97 72
49 119 -31 32 -69 32 -102 -1z"/>
<path d="M4300 1870 c-43 -43 -14 -110 47 -110 38 0 63 27 63 68 0 56 -70 82
-110 42z"/>
<path d="M4057 1812 c-37 -41 -6 -112 48 -112 55 0 87 77 47 113 -25 22 -75
21 -95 -1z"/>
<path d="M2560 1683 c-92 -47 -87 -180 7 -220 102 -42 202 58 160 160 -28 65
-104 93 -167 60z"/>
<path d="M2907 1622 c-15 -16 -17 -48 -17 -239 0 -200 2 -221 18 -236 27 -25
78 -22 96 5 13 19 16 59 16 233 0 174 -3 214 -16 233 -19 28 -74 30 -97 4z"/>
<path d="M3130 1511 c-6 -12 -10 -98 -10 -209 0 -170 2 -191 18 -205 26 -23
58 -21 76 5 13 18 16 56 16 203 0 147 -3 185 -16 203 -20 28 -69 30 -84 3z"/>
<path d="M2556 1318 c-13 -19 -16 -59 -16 -238 0 -228 2 -241 47 -255 17 -4
29 1 48 19 l25 25 0 213 c0 238 -5 258 -60 258 -18 0 -34 -8 -44 -22z"/>
<path d="M2920 962 c-44 -35 -17 -112 39 -112 32 0 44 8 60 37 16 31 14 41
-14 68 -29 30 -55 32 -85 7z"/>
<path d="M3137 922 c-15 -16 -17 -46 -17 -208 0 -208 4 -226 55 -226 51 0 55
18 55 224 0 175 -1 189 -20 208 -25 25 -52 26 -73 2z"/>
<path d="M3822 627 c-6 -6 -13 -24 -17 -39 -5 -21 -1 -33 19 -52 29 -30 52
-33 84 -10 26 18 30 74 6 98 -19 19 -77 21 -92 3z"/>
<path d="M4339 541 c-65 -65 -7 -171 84 -154 70 14 98 113 44 159 -40 34 -90
32 -128 -5z"/>
</g>
</svg>
